<svg xmlns="http://www.w3.org/2000/svg" style="display: none;">
  <symbol id="xmark" viewBox="0 0 640 640">
    <path fill="currentColor" d="M183.1 137.4C170.6 124.9 150.3 124.9 137.8 137.4C125.3 149.9 125.3 170.2 137.8 182.7L275.2 320L137.9 457.4C125.4 469.9 125.4 490.2 137.9 502.7C150.4 515.2 170.7 515.2 183.2 502.7L320.5 365.3L457.9 502.6C470.4 515.1 490.7 515.1 503.2 502.6C515.7 490.1 515.7 469.8 503.2 457.3L365.8 320L503.1 182.6C515.6 170.1 515.6 149.8 503.1 137.3C490.6 124.8 470.3 124.8 457.8 137.3L320.5 274.7L183.1 137.4z"/>
  </symbol>
  <symbol id="minimize" viewBox="0 0 640 640">
    <path fill="currentColor" d="M64 480C64 462.3 78.3 448 96 448L544 448C561.7 448 576 462.3 576 480C576 497.7 561.7 512 544 512L96 512C78.3 512 64 497.7 64 480z"/>
  </symbol>
  <symbol id="settings" viewBox="0 0 640 640">
    <path fill="currentColor" d="M259.1 73.5C262.1 58.7 275.2 48 290.4 48L350.2 48C365.4 48 378.5 58.7 381.5 73.5L396 143.5C410.1 149.5 423.3 157.2 435.3 166.3L503.1 143.8C517.5 139 533.3 145 540.9 158.2L570.8 210C578.4 223.2 575.7 239.8 564.3 249.9L511 297.3C511.9 304.7 512.3 312.3 512.3 320C512.3 327.7 511.8 335.3 511 342.7L564.4 390.2C575.8 400.3 578.4 417 570.9 430.1L541 481.9C533.4 495 517.6 501.1 503.2 496.3L435.4 473.8C423.3 482.9 410.1 490.5 396.1 496.6L381.7 566.5C378.6 581.4 365.5 592 350.4 592L290.6 592C275.4 592 262.3 581.3 259.3 566.5L244.9 496.6C230.8 490.6 217.7 482.9 205.6 473.8L137.5 496.3C123.1 501.1 107.3 495.1 99.7 481.9L69.8 430.1C62.2 416.9 64.9 400.3 76.3 390.2L129.7 342.7C128.8 335.3 128.4 327.7 128.4 320C128.4 312.3 128.9 304.7 129.7 297.3L76.3 249.8C64.9 239.7 62.3 223 69.8 209.9L99.7 158.1C107.3 144.9 123.1 138.9 137.5 143.7L205.3 166.2C217.4 157.1 230.6 149.5 244.6 143.4L259.1 73.5zM320.3 400C364.5 399.8 400.2 363.9 400 319.7C399.8 275.5 363.9 239.8 319.7 240C275.5 240.2 239.8 276.1 240 320.3C240.2 364.5 276.1 400.2 320.3 400z"/>
  </symbol>
  <symbol id="play" viewBox="0 0 640 640">
    <path fill="currentColor" d="M187.2 100.9C174.8 94.1 159.8 94.4 147.6 101.6C135.4 108.8 128 121.9 128 136L128 504C128 518.1 135.5 531.2 147.6 538.4C159.7 545.6 174.8 545.9 187.2 539.1L523.2 355.1C536 348.1 544 334.6 544 320C544 305.4 536 291.9 523.2 284.9L187.2 100.9z"/>
  </symbol>
  <symbol id="discord" viewBox="0 0 640 640">
    <path fill="currentColor" d="M524.5 133.8C524.3 133.5 524.1 133.2 523.7 133.1C485.6 115.6 445.3 103.1 404 96C403.6 95.9 403.2 96 402.9 96.1C402.6 96.2 402.3 96.5 402.1 96.9C396.6 106.8 391.6 117.1 387.2 127.5C342.6 120.7 297.3 120.7 252.8 127.5C248.3 117 243.3 106.8 237.7 96.9C237.5 96.6 237.2 96.3 236.9 96.1C236.6 95.9 236.2 95.9 235.8 95.9C194.5 103 154.2 115.5 116.1 133C115.8 133.1 115.5 133.4 115.3 133.7C39.1 247.5 18.2 358.6 28.4 468.2C28.4 468.5 28.5 468.7 28.6 469C28.7 469.3 28.9 469.4 29.1 469.6C73.5 502.5 123.1 527.6 175.9 543.8C176.3 543.9 176.7 543.9 177 543.8C177.3 543.7 177.7 543.4 177.9 543.1C189.2 527.7 199.3 511.3 207.9 494.3C208 494.1 208.1 493.8 208.1 493.5C208.1 493.2 208.1 493 208 492.7C207.9 492.4 207.8 492.2 207.6 492.1C207.4 492 207.2 491.8 206.9 491.7C191.1 485.6 175.7 478.3 161 469.8C160.7 469.6 160.5 469.4 160.3 469.2C160.1 469 160 468.6 160 468.3C160 468 160 467.7 160.2 467.4C160.4 467.1 160.5 466.9 160.8 466.7C163.9 464.4 167 462 169.9 459.6C170.2 459.4 170.5 459.2 170.8 459.2C171.1 459.2 171.5 459.2 171.8 459.3C268 503.2 372.2 503.2 467.3 459.3C467.6 459.2 468 459.1 468.3 459.1C468.6 459.1 469 459.3 469.2 459.5C472.1 461.9 475.2 464.4 478.3 466.7C478.5 466.9 478.7 467.1 478.9 467.4C479.1 467.7 479.1 468 479.1 468.3C479.1 468.6 479 468.9 478.8 469.2C478.6 469.5 478.4 469.7 478.2 469.8C463.5 478.4 448.2 485.7 432.3 491.6C432.1 491.7 431.8 491.8 431.6 492C431.4 492.2 431.3 492.4 431.2 492.7C431.1 493 431.1 493.2 431.1 493.5C431.1 493.8 431.2 494 431.3 494.3C440.1 511.3 450.1 527.6 461.3 543.1C461.5 543.4 461.9 543.7 462.2 543.8C462.5 543.9 463 543.9 463.3 543.8C516.2 527.6 565.9 502.5 610.4 469.6C610.6 469.4 610.8 469.2 610.9 469C611 468.8 611.1 468.5 611.1 468.2C623.4 341.4 590.6 231.3 524.2 133.7zM222.5 401.5C193.5 401.5 169.7 374.9 169.7 342.3C169.7 309.7 193.1 283.1 222.5 283.1C252.2 283.1 275.8 309.9 275.3 342.3C275.3 375 251.9 401.5 222.5 401.5zM417.9 401.5C388.9 401.5 365.1 374.9 365.1 342.3C365.1 309.7 388.5 283.1 417.9 283.1C447.6 283.1 471.2 309.9 470.7 342.3C470.7 375 447.5 401.5 417.9 401.5z"/>
  </symbol>
</svg>
